<svg version="1.0" xmlns="http://www.w3.org/2000/svg" viewBox="0 0 300.000000 360.000000"
    preserveAspectRatio="xMidYMid meet" fill="currentColor" stroke="currentColor">
    <g transform="translate(0.000000,360.000000) scale(0.100000,-0.100000)">
        <path
            d="M1120 3584 c-207 -30 -409 -98 -562 -191 -386 -232 -562 -581 -493 -974 42 -240 129 -385 320 -534 95 -74 165 -111 306 -160 179 -62 279 -82 781 -155 535 -77 624 -97 735 -169 33 -21 64 -44 67 -50 5 -8 116 -11 368 -11 l361 0 -5 43 c-14 120 -132 310 -255 409 -216 174 -438 246 -998 323 -589 81 -723 109 -861 184 -159 86 -218 265 -140 425 35 72 126 155 218 200 262 128 737 121 999 -15 190 -99 296 -250 314 -449 4 -41 12 -81 18 -87 11 -15 603 -19 626 -4 22 14 8 222 -23 343 -91 356 -368 646 -741 778 -123 43 -268 77 -403 95 -142 19 -499 18 -632 -1z" />
        <path
            d="M163 1279 c-45 -13 -63 -44 -63 -106 l0 -53 -50 0 -50 0 0 -40 0 -40 50 0 50 0 0 -185 0 -185 45 0 45 0 0 185 0 185 75 0 75 0 0 -185 0 -185 45 0 45 0 0 225 0 225 -121 0 -120 0 3 38 c3 37 3 37 51 40 l47 3 0 45 0 44 -47 -1 c-27 0 -62 -5 -80 -10z" />
        <path
            d="M2639 1279 c-96 -15 -184 -82 -224 -173 -34 -75 -39 -125 -21 -196 44 -170 202 -268 365 -226 143 37 234 152 234 296 0 185 -169 328 -354 299z" />
        <path
            d="M466 595 c-36 -33 -46 -65 -46 -145 0 -80 10 -112 46 -145 38 -36 120 -36 158 0 36 33 46 65 46 146 0 122 -35 169 -126 169 -40 0 -57 -5 -78 -25z m122 -75 c17 -34 11 -135 -10 -157 -23 -23 -66 -9 -79 25 -14 34 -7 126 11 147 19 23 62 15 78 -15z" />
        <path
            d="M677 315 c-103 -168 -187 -307 -187 -310 0 -3 20 -5 44 -5 l44 0 158 257 c87 142 170 277 186 300 15 23 28 46 28 52 0 6 -19 11 -43 11 l-44 0 -186 -305z" />
        <path
            d="M1392 605 c-137 -38 -227 -156 -227 -295 1 -82 16 -127 66 -190 159 -201 470 -131 535 119 18 72 13 122 -20 196 -33 73 -69 111 -139 144 -77 37 -145 45 -215 26z m196 -112 c59 -36 102 -114 102 -183 0 -70 -43 -147 -103 -184 -68 -42 -138 -46 -210 -13 -115 53 -159 179 -101 295 58 116 200 155 312 85z" />
        <path
            d="M1922 608 c-9 -9 -12 -90 -12 -305 l0 -293 23 -5 c12 -3 150 -4 307 -3 l285 3 3 299 c2 233 -1 301 -10 308 -22 13 -582 10 -596 -4z" />
        <path
            d="M826 319 c-42 -33 -56 -71 -56 -149 0 -121 36 -170 125 -170 90 0 128 49 129 165 0 118 -43 175 -132 175 -25 0 -49 -8 -66 -21z m99 -63 c27 -19 34 -126 11 -161 -18 -27 -56 -34 -74 -12 -28 34 -26 142 4 172 19 19 35 19 59 1z" />
    </g>
</svg>